<mxfile host="app.diagrams.net" modified="2023-10-06T16:31:14.711Z" agent="Mozilla/5.0 (Windows NT 10.0; Win64; x64) AppleWebKit/537.36 (KHTML, like Gecko) Chrome/117.0.0.0 Safari/537.36" version="21.8.2" etag="yYyoxNjxlTcDxse2VZq9" type="github">
  <diagram name="Страница — 1" id="IcskS1x6L9GqO2Q_vGER">
    <mxGraphModel>
      <root>
        <mxCell id="0" />
        <mxCell id="1" parent="0" />
      </root>
    </mxGraphModel>
  </diagram>
</mxfile>
